# AST/ASF file generated using VICON BodyLanguage
# -----------------------------------------------
:version 1.10
:name VICON
:units
  mass 1.0
  length 0.45
  angle deg
:documentation
   .ast/.asf automatically generated from VICON data using
   VICON BodyBuilder and BodyLanguage model FoxedUp or BRILLIANT.MOD
:root
   order TX TY TZ RX RY RZ
   axis XYZ
   position 0 0 0  
   orientation 0 0 0 
:bonedata
  begin
     id 1 
     name lhipjoint
     direction 0.440178 -0.822639 0.359871 
     length 2.53113 
     axis 0 0 0  XYZ
  end
  begin
     id 2 
     name lfemur
     direction 0.34202 -0.939693 0  
     length 7.88132  
     axis 0 0 20  XYZ
    dof rx ry rz
    limits (-160.0 20.0)
           (-70.0 70.0)
           (-60.0 70.0)
  end
  begin
     id 3 
     name ltibia
     direction 0.34202 -0.939693 0   
     length 8.43783   
     axis 0 0 20   XYZ
    dof rx
    limits (-10.0 170.0)
  end
  begin
     id 4 
     name lfoot
     direction 0.0886351 -0.243523 0.965837   
     length 2.63414   
     axis -90 7.62852e-016 20   XYZ
    dof rx rz
    limits (-45.0 90.0)
           (-70.0 20.0)
  end
  begin
     id 5 
     name ltoes
     direction 1.53703e-011 -4.21717e-011 1   
     length 1.31427   
     axis -90 7.62852e-016 20   XYZ
    dof rx
    limits (-90.0 20.0)
  end
  begin
     id 6 
     name rhipjoint
     direction -0.399779 -0.839773 0.367367   
     length 2.47948  
     axis 0 0 0  XYZ 
  end
  begin
     id 7 
     name rfemur
     direction -0.34202 -0.939693 0   
     length 7.74806   
     axis 0 0 -20   XYZ
    dof rx ry rz
    limits (-160.0 20.0)
           (-70.0 70.0)
           (-70.0 60.0)
  end
  begin
     id 8 
     name rtibia
     direction -0.34202 -0.939693 0   
     length 8.74432   
     axis 0 0 -20   XYZ
    dof rx
    limits (-10.0 170.0)
 end
 begin
     id 9 
     name rfoot
     direction -0.108514 -0.298139 0.948334   
     length 2.66102  
     axis -90 -7.62852e-016 -20   XYZ
    dof rx rz
    limits (-45.0 90.0)
           (-20.0 70.0)
  end
  begin
     id 10 
     name rtoes
     direction -1.53392e-011 -4.22077e-011 1   
     length 1.31983   
     axis -90 -7.62852e-016 -20   XYZ
    dof rx
    limits (-90.0 20.0)
  end
  begin
     id 11 
     name lowerback
     direction 0.0113257 0.999866 0.0118602   
     length 2.58694   
     axis 0 0 0   XYZ
    dof rx ry rz
    limits (-20.0 45.0)
           (-30.0 30.0)
           (-30.0 30.0)
  end
  begin
     id 12 
     name upperback
     direction -0.0164747 0.995193 -0.0965375   
     length 2.52368   
     axis 0 0 0   XYZ
    dof rx ry rz
    limits (-20.0 45.0)
           (-30.0 30.0)
           (-30.0 30.0)
  end
  begin
     id 13 
     name thorax
     direction -0.0194301 0.99433 -0.104552   
     length 2.56099   
     axis 0 0 0   XYZ
    dof rx ry rz
    limits (-20.0 45.0)
           (-30.0 30.0)
           (-30.0 30.0)
  end
  begin
     id 14 
     name lowerneck
     direction 0.0148543 0.995587 -0.092657   
     length 1.71582   
     axis 0 0 0   XYZ
    dof rx ry rz
    limits (-20.0 45.0)
           (-30.0 30.0)
           (-30.0 30.0)
  end
  begin
     id 15 
     name upperneck
     direction -0.0135467 0.993656 -0.111639   
     length 1.68937   
     axis 0 0 0   XYZ
    dof rx ry rz
    limits (-20.0 45.0)
           (-30.0 30.0)
           (-30.0 30.0)
  end
  begin
     id 16
     name head
     direction -0.00615349 0.999547 -0.029448  
     length 1.7462  
     axis 0 0 0   XYZ
    dof rx ry rz
    limits (-20.0 45.0)
           (-30.0 30.0)
           (-30.0 30.0)
  end
  begin
     id 17 
     name lclavicle
     direction 0.988267 0.149885 0.0293713  
     length 4.47222  
     axis 0 0 0   XYZ
    dof ry rz
    limits (-20.0 10.0)
           (0.0 20.0)
  end
  begin
     id 18 
     name lhumerus
     direction 1 -4.48986e-011 -1.14833e-027   
     length 5.37148   
     axis 180 -30 -90   XYZ
    dof rx ry rz
    limits (-60.0 90.0)
           (-90.0 90.0)
           (-90.0 90.0)
  end
  begin
     id 19
     name lradius
     direction 0.999998 0.00170963 -0.000987055   
     length 3.94212   
     axis 180 -30 -90   XYZ
    dof rx
    limits (-10.0 170.0)
  end
  begin
     id 20
     name lwrist
     direction 0.999998 7.53149e-005 -0.00194706   
     length 1.97106   
     axis 4.65056e-015 90 90   XYZ
    dof ry
    limits (-180.0 0.0)
 end
  begin
     id 21 
     name lhand
     direction 1 -4.48973e-011 -1.31746e-026   
     length 1.17917   
     axis 8.4065e-015 90 90   XYZ
    dof rx rz
    limits (-90.0 90.0)
           (-45.0 45.0)
  end
  begin
     id 22 
     name lfingers
     direction 1 -4.49107e-011 -2.63492e-026   
     length 0.950679   
     axis 1.6813e-014 90 90   XYZ
    dof rx
    limits (0.0 90.0)
  end
  begin
     id 23
     name lthumb
     direction 0.707107 -6.35048e-011 0.707107   
     length 1.36499   
     axis -90 45 2.85299e-015   XYZ
    dof rx rz
    limits (-45.0 45.0)
           (-45.0 45.0)
  end
  begin
     id 24 
     name rclavicle
     direction -0.996699 0.0642895 -0.0495725   
     length 4.62611  
     axis 0 0 0   XYZ 
    dof ry rz
    limits (-10.0 20.0)
           (-20.0 0.0)
  end
  begin
     id 25 
     name rhumerus
     direction -1 -4.48919e-011 -2.41059e-027  
     length 5.4981   
     axis 180 30 90   XYZ
    dof rx ry rz
    limits (-90.0 60.0)
           (-90.0 90.0)
           (-90.0 90.0)
  end
  begin
     id 26 
     name rradius
     direction -0.999999 0.00118101 -0.000681858   
     length 3.48381   
     axis 180 30 90   XYZ
    dof rx
    limits (-10.0 170.0)
  end
  begin
     id 27 
     name rwrist
     direction -0.999999 0.000321823 -0.00132288   
     length 1.7419   
     axis 4.65056e-015 -90 -90   XYZ
    dof ry
    limits (-180.0 0.0)
  end
  begin
     id 28
     name rhand
     direction -1 -4.49022e-011 -1.31746e-026   
     length 1.34932   
     axis 8.4065e-015 -90 -90   XYZ
    dof rx rz
    limits (-90.0 90.0)
           (-45.0 45.0)
  end
  begin
     id 29
     name rfingers
     direction -1 -4.49178e-011 -2.63492e-026   
     length 1.08785   
     axis 1.6813e-014 -90 -90   XYZ
    dof rx
    limits (0.0 90.0)
  end
  begin
     id 30
     name rthumb
     direction -0.707107 -6.34713e-011 0.707107   
     length 1.56195   
     axis -90 -45 -2.85299e-015   XYZ
    dof rx rz
    limits (-45.0 45.0)
           (-45.0 45.0)
  end
:hierarchy
  begin
    root lhipjoint rhipjoint lowerback
    lhipjoint lfemur
    lfemur ltibia
    ltibia lfoot
    lfoot ltoes
    rhipjoint rfemur
    rfemur rtibia
    rtibia rfoot
    rfoot rtoes
    lowerback upperback
    upperback thorax
    thorax lowerneck lclavicle rclavicle
    lowerneck upperneck
    upperneck head
    lclavicle lhumerus
    lhumerus lradius
    lradius lwrist
    lwrist lhand lthumb
    lhand lfingers
    rclavicle rhumerus
    rhumerus rradius
    rradius rwrist
    rwrist rhand rthumb
    rhand rfingers
  end

#!OML:ASF X:\für Bonn\!DataBase\2005_08_10_Bjorn_Final\c3d\bjorn.ASF
:FULLY-SPECIFIED
:DEGREES
16
root -3.03812 18.7211 12.9645 -537.906 11.9991 -536.532
lowerback 16.5766 1.78252 -5.8958
upperback 17.9917 7.41662 -4.91194
thorax 11.023 5.39963 -2.261
lowerneck -4.82552 -1.96472 1.0109
upperneck -11.3164 -1.61 3.14257
head -2.75155 -0.552309 0.83158
rclavicle -6.36111e-014 -5.40694e-014
rhumerus -15.3107 -6.49468 -96.6085
rradius 57.6854
rwrist 2.96268
rhand -22.452 12.8195
rfingers 7.12502
rthumb 3.97229 -17.1232
lclavicle -6.36111e-014 -5.40694e-014
lhumerus 1.49899 -25.9336 80.9176
lradius 35.5371
lwrist 11.1027
lhand -24.9074 -3.02212
lfingers 7.12502
lthumb 1.60104 26.9516
rfemur 326.249 -5.439 -345.405
rtibia 37.5592
rfoot -9.28156 14.6312
rtoes -17.9717
lfemur -15.3403 0.714812 -13.3375
ltibia 39.7701
lfoot -21.4077 -1.9092
ltoes -23.987
17
root -3.04417 18.7497 13.0667 -537.469 11.7791 -536.419
lowerback 16.7234 1.79525 -5.96206
upperback 18.0134 7.46943 -4.9736
thorax 10.9832 5.43972 -2.30822
lowerneck -4.55541 -0.991692 0.795814
upperneck -11.8439 -1.92693 3.23284
head -2.97035 -1.48259 0.949475
rclavicle 2.54444e-014 4.45278e-014
rhumerus -15.3693 -6.00116 -96.9007
rradius 57.7993
rwrist 3.10274
rhand -22.5712 13.0292
rfingers 7.12502
rthumb 3.85722 -16.9156
lclavicle 2.54444e-014 4.45278e-014
lhumerus 1.5669 -25.3628 80.9417
lradius 35.7018
lwrist 11.6465
lhand -25.1045 -2.85668
lfingers 7.12502
lthumb 1.41065 27.1184
rfemur 326.366 -5.07655 -345.525
rtibia 38.0594
rfoot -9.53583 14.5152
rtoes -18.1744
lfemur -16.1095 0.770454 -13.1305
ltibia 39.5875
lfoot -20.9927 -2.27385
ltoes -23.8327
18
root -3.0492 18.7789 13.1675 -537.04 11.5443 -536.291
lowerback 16.8768 1.81077 -6.02802
upperback 18.035 7.51683 -5.00048
thorax 10.9328 5.47219 -2.31848
lowerneck -4.26021 -1.06338 0.748906
upperneck -12.3192 -2.02184 3.38089
head -3.18487 -1.55627 1.02062
rclavicle -1.43125e-014 3.73715e-014
rhumerus -15.3688 -5.51032 -97.1455
rradius 57.8754
rwrist 3.23519
rhand -22.6285 13.2934
rfingers 7.12502
rthumb 3.80183 -16.6525
lclavicle -1.43125e-014 3.73715e-014
lhumerus 1.64398 -24.8645 81.0026
lradius 35.8464
lwrist 12.1821
lhand -25.2069 -2.69662
lfingers 7.12502
lthumb 1.31178 27.2791
rfemur 326.508 -4.76957 -345.603
rtibia 38.5682
rfoot -9.80506 14.3925
rtoes -18.4063
lfemur -16.8496 0.741715 -12.9117
ltibia 39.3871
lfoot -20.5975 -2.53864
ltoes -23.8424
19
root -3.05421 18.8069 13.2658 -536.6 11.3077 -536.195
lowerback 16.9977 1.82231 -6.09543
upperback 18.0548 7.56327 -5.04559
thorax 10.9013 5.50498 -2.34452
lowerneck -3.93629 -1.12117 0.870712
upperneck -12.8128 -2.10672 3.44447
head -3.41564 -1.63109 1.03732
rclavicle -4.77083e-015 2.38542e-014
rhumerus -15.3292 -5.05493 -97.3998
rradius 57.9644
rwrist 3.39847
rhand -22.6593 13.5709
rfingers 7.12502
rthumb 3.77208 -16.3755
lclavicle -4.77083e-015 2.38542e-014
lhumerus 1.77735 -24.4863 81.0174
lradius 35.9382
lwrist 12.9156
lhand -25.3212 -2.58091
lfingers 7.12502
lthumb 1.2013 27.3955
rfemur 326.642 -4.54725 -345.694
rtibia 39.0854
rfoot -10.0227 14.3141
rtoes -18.336
lfemur -17.5989 0.656792 -12.7353
ltibia 39.1861
lfoot -20.1807 -2.7699
ltoes -23.6332
20
root -3.05782 18.8329 13.3619 -536.138 11.0728 -536.134
lowerback 17.0804 1.83392 -6.2033
upperback 18.0609 7.59737 -5.0909
thorax 10.8689 5.52249 -2.34547
lowerneck -3.64174 -1.17124 0.99929
upperneck -13.2587 -2.18201 3.47135
head -3.62738 -1.6983 1.04009
rclavicle 1.11319e-014 1.15295e-013
rhumerus -15.2756 -4.53926 -97.6514
rradius 58.081
rwrist 3.59075
rhand -22.688 13.8197
rfingers 7.12502
rthumb 3.7444 -16.1272
lclavicle 1.11319e-014 1.15295e-013
lhumerus 1.88326 -24.1416 81.0347
lradius 36.0384
lwrist 13.6705
lhand -25.4146 -2.54603
lfingers 7.12502
lthumb 1.1111 27.4308
rfemur 326.769 -4.3313 -345.815
rtibia 39.6136
rfoot -10.2377 14.2336
rtoes -18.0853
lfemur -18.3765 0.583456 -12.5888
ltibia 38.9967
lfoot -19.7692 -3.04339
ltoes -23.3416
21
root -3.0618 18.8543 13.4552 -535.703 10.8431 -536.09
lowerback 17.1589 1.84102 -6.30445
upperback 18.0922 7.6425 -5.13773
thorax 10.8732 5.55031 -2.34949
lowerneck -3.47382 -1.22335 1.07468
upperneck -13.6332 -2.25817 3.56804
head -3.79095 -1.7652 1.07234
rclavicle 4.77083e-015 -5.00937e-014
rhumerus -15.1644 -4.05024 -97.8975
rradius 58.2408
rwrist 3.91477
rhand -22.7768 14.0081
rfingers 7.12502
rthumb 3.6586 -15.9403
lclavicle 4.77083e-015 -5.00937e-014
lhumerus 2.04488 -23.8311 81.06
lradius 36.1329
lwrist 14.4916
lhand -25.5096 -2.51438
lfingers 7.12502
lthumb 1.01935 27.4629
rfemur 326.935 -4.1701 -345.945
rtibia 40.1573
rfoot -10.4723 14.1737
rtoes -17.7366
lfemur -19.1277 0.539315 -12.4682
ltibia 38.8314
lfoot -19.3846 -3.29768
ltoes -23.0594
22
root -3.06544 18.8735 13.5472 -535.261 10.6101 -536.066
lowerback 17.2181 1.83694 -6.42586
upperback 18.1145 7.65957 -5.17324
thorax 10.8711 5.55676 -2.32723
lowerneck -3.30149 -1.25403 1.04015
upperneck -13.9765 -2.29537 3.72557
head -3.94431 -1.80822 1.14315
rclavicle 2.54444e-014 2.06736e-014
rhumerus -15.0518 -3.43871 -98.0996
rradius 58.4398
rwrist 4.20691
rhand -22.8859 14.1688
rfingers 7.12502
rthumb 3.55332 -15.7813
lclavicle 2.54444e-014 2.06736e-014
lhumerus 2.1626 -23.4938 81.1186
lradius 36.238
lwrist 15.283
lhand -25.6143 -2.51018
lfingers 7.12502
lthumb 0.918264 27.4676
rfemur 327.102 -4.01484 -346.083
rtibia 40.7057
rfoot -10.7573 14.0818
rtoes -17.3701
lfemur -19.9137 0.547675 -12.3661
ltibia 38.6943
lfoot -18.9743 -3.60045
ltoes -22.7125
23
root -3.06692 18.8905 13.6359 -534.836 10.4023 -536.057
lowerback 17.2534 1.84158 -6.57211
upperback 18.1466 7.69467 -5.21293
thorax 10.8946 5.57037 -2.29383
lowerneck -3.1781 -1.26703 1.00961
upperneck -14.2997 -2.30911 3.90577
head -4.08248 -1.8414 1.21991
rclavicle -1.59028e-014 -1.66979e-014
rhumerus -14.9222 -2.80996 -98.3076
rradius 58.7039
rwrist 4.63466
rhand -23.0305 14.2756
rfingers 7.12502
rthumb 3.41366 -15.6768
lclavicle -1.59028e-014 -1.66979e-014
lhumerus 2.32274 -23.1748 81.1677
lradius 36.32
lwrist 16.0843
lhand -25.6903 -2.5412
lfingers 7.12502
lthumb 0.844834 27.4369
rfemur 327.294 -3.90985 -346.206
rtibia 41.244
rfoot -11.0033 14.0012
rtoes -16.7233
lfemur -20.6723 0.581064 -12.2828
ltibia 38.5805
lfoot -18.5829 -3.87211
ltoes -22.4463
24
root -3.06679 18.9059 13.7236 -534.428 10.2111 -536.046
lowerback 17.3053 1.84913 -6.74249
upperback 18.1729 7.71896 -5.2301
thorax 10.8948 5.57152 -2.22476
lowerneck -3.09748 -1.26378 0.870049
upperneck -14.5747 -2.29523 4.1369
head -4.1948 -1.8556 1.33092
rclavicle -2.54444e-014 1.59028e-014
rhumerus -14.8194 -2.05356 -98.463
rradius 59.0161
rwrist 4.99669
rhand -23.2334 14.3656
rfingers 7.12502
rthumb 3.21766 -15.5899
lclavicle -2.54444e-014 1.59028e-014
lhumerus 2.45138 -22.7976 81.2699
lradius 36.4008
lwrist 16.863
lhand -25.7202 -2.52136
lfingers 7.12502
lthumb 0.815957 27.4568
rfemur 327.516 -3.78963 -346.31
rtibia 41.7571
rfoot -11.2808 13.876
rtoes -16.1971
lfemur -21.4156 0.648771 -12.1958
ltibia 38.484
lfoot -18.2096 -4.14324
ltoes -22.3162
25
root -3.06449 18.9198 13.8101 -534.043 10.0354 -536.018
lowerback 17.3846 1.86919 -6.9088
upperback 18.1855 7.74474 -5.22581
thorax 10.8585 5.56999 -2.13936
lowerneck -3.03785 -1.26674 0.763185
upperneck -14.8209 -2.2969 4.28921
head -4.294 -1.87402 1.40957
rclavicle 3.18055e-015 8.82604e-014
rhumerus -14.7164 -1.26725 -98.5901
rradius 59.3394
rwrist 5.44356
rhand -23.5063 14.4656
rfingers 7.12502
rthumb 2.95416 -15.4937
lclavicle 3.18055e-015 8.82604e-014
lhumerus 2.55528 -22.4569 81.4054
lradius 36.4632
lwrist 17.5689
lhand -25.747 -2.50127
lfingers 7.12502
lthumb 0.790103 27.477
rfemur 327.772 -3.70312 -346.369
rtibia 42.2333
rfoot -11.5162 13.7841
rtoes -15.6883
lfemur -22.1315 0.760001 -12.0909
ltibia 38.3986
lfoot -17.8272 -4.43251
ltoes -22.1014
26
root -3.06176 18.9319 13.8939 -533.7 9.87577 -535.977
lowerback 17.4666 1.88431 -7.05753
upperback 18.2033 7.76873 -5.22655
thorax 10.8299 5.57122 -2.06866
lowerneck -3.06448 -1.25335 0.717538
upperneck -14.9762 -2.28227 4.38661
head -4.34505 -1.88077 1.45456
rclavicle 4.77083e-014 3.10104e-014
rhumerus -14.6043 -0.439751 -98.7161
rradius 59.6683
rwrist 5.88794
rhand -23.8626 14.6352
rfingers 7.12502
rthumb 2.61002 -15.3286
lclavicle 4.77083e-014 3.10104e-014
lhumerus 2.65462 -22.059 81.5437
lradius 36.5092
lwrist 18.2078
lhand -25.6957 -2.45126
lfingers 7.12502
lthumb 0.839682 27.5268
rfemur 328.074 -3.66578 -346.382
rtibia 42.6746
rfoot -11.7091 13.6689
rtoes -15.0947
lfemur -22.7983 0.875147 -11.9684
ltibia 38.3271
lfoot -17.4646 -4.7747
ltoes -21.6853
